<?xml version="1.0" encoding="utf-8"?>
<!-- Generator: Adobe Illustrator 19.0.0, SVG Export Plug-In . SVG Version: 6.00 Build 0)  -->
<svg version="1.1" id="Layer_1" xmlns="http://www.w3.org/2000/svg" xmlns:xlink="http://www.w3.org/1999/xlink" x="0px" y="0px"
	 viewBox="0 0 200 21.271" enable-background="new 0 0 200 21.271" xml:space="preserve">
<g>
	<g>
		<g>
			<path id="XMLID_13_" fill="#00ADEE" d="M18.53,7.793c0,0.286,0.223,0.45,0.496,0.366l4.113-1.274
				c0.273-0.084,0.496,0.08,0.496,0.366v13.595c0,0.286,0.223,0.449,0.495,0.363l3.213-1.012c0.273-0.086,0.496-0.39,0.496-0.675
				V5.945c0-0.286,0-0.753,0-1.038v-2.77c0-0.286-0.224-0.45-0.497-0.365l-8.316,2.578c-0.273,0.085-0.496,0.387-0.496,0.673V7.793z
				"/>
		</g>
		<g>
			<path id="XMLID_12_" fill="#00ADEE" d="M30.075,0.919c-0.273,0.085-0.496,0.388-0.496,0.674v2.77c0,0.286,0.223,0.45,0.496,0.365
				l2.875-0.897c0.273-0.085,0.496-0.388,0.496-0.674v-2.77c0-0.286-0.223-0.45-0.496-0.365L30.075,0.919z"/>
		</g>
	</g>
	<path fill="#FFFFFF" d="M0.134,18.21l1.02-1.757c0.227-0.397,0.709-0.397,0.963-0.199c0.142,0.085,2.438,1.758,4.28,1.758
		c1.474,0,2.578-0.965,2.578-2.182c0-1.445-1.218-2.437-3.599-3.401C2.714,11.352,0.05,9.652,0.05,6.307
		c0-2.523,1.87-5.441,6.376-5.441c2.891,0,5.101,1.474,5.667,1.899c0.285,0.169,0.369,0.652,0.171,0.935l-1.078,1.616
		c-0.227,0.34-0.651,0.566-0.991,0.34C9.968,5.514,7.815,4.096,6.256,4.096c-1.616,0-2.494,1.077-2.494,1.984
		c0,1.332,1.048,2.239,3.345,3.174c2.749,1.105,5.923,2.749,5.923,6.404c0,2.919-2.522,5.612-6.518,5.612
		c-3.57,0-5.668-1.673-6.235-2.21C0.021,18.805-0.12,18.664,0.134,18.21z"/>
	<path fill="#FFFFFF" d="M39.509,1.688c0-0.284,0.255-0.539,0.539-0.539h2.693c0.311,0,0.539,0.255,0.539,0.539v11.591
		c0,2.408,1.643,4.307,4.109,4.307c2.465,0,4.137-1.899,4.137-4.279V1.688c0-0.284,0.226-0.539,0.538-0.539h2.692
		c0.284,0,0.539,0.255,0.539,0.539v11.789c0,4.307-3.429,7.794-7.906,7.794c-4.449,0-7.879-3.487-7.879-7.794V1.688z"/>
	<path fill="#FFFFFF" d="M65.003,1.688c0-0.284,0.227-0.539,0.51-0.539h6.716c5.47,0,9.947,4.449,9.947,9.891
		c0,5.498-4.477,9.947-9.947,9.947h-6.716c-0.283,0-0.51-0.255-0.51-0.538V1.688z M71.89,17.529c3.684,0,6.377-2.776,6.377-6.49
		c0-3.684-2.693-6.461-6.377-6.461h-3.23v12.95H71.89z"/>
	<path fill="#FFFFFF" d="M90.753,1.688c0-0.284,0.255-0.539,0.538-0.539h2.635c0.283,0,0.538,0.255,0.538,0.539v18.761
		c0,0.283-0.255,0.538-0.538,0.538h-2.635c-0.283,0-0.538-0.255-0.538-0.538V1.688z"/>
	<path fill="#FFFFFF" d="M113.216,0.866c5.667,0,10.202,4.563,10.202,10.231c0,5.667-4.535,10.174-10.202,10.174
		c-5.667,0-10.174-4.507-10.174-10.174C103.041,5.429,107.548,0.866,113.216,0.866z M113.216,17.587c3.571,0,6.518-2.919,6.518-6.49
		c0-3.571-2.947-6.547-6.518-6.547s-6.49,2.975-6.49,6.547C106.725,14.668,109.645,17.587,113.216,17.587z"/>
	<path fill="#FFFFFF" d="M143.026,20.959c-5.531,0-9.862-4.332-9.862-9.862c0-5.47,4.424-9.919,9.862-9.919
		c5.453,0,9.891,4.45,9.891,9.919C152.916,16.627,148.572,20.959,143.026,20.959z M143.026,2.538c-4.688,0-8.502,3.839-8.502,8.559
		c0,4.687,3.814,8.501,8.502,8.501c4.703,0,8.53-3.814,8.53-8.501C151.556,6.378,147.729,2.538,143.026,2.538z"/>
	<path id="XMLID_2_" fill="#FFFFFF" d="M176.554,20.959L163.546,4.72h-0.461l-0.029,0.312v15.417c0,0.109-0.087,0.226-0.227,0.226
		h-0.992c-0.111,0-0.228-0.116-0.228-0.226V1.376c0-0.104,0.109-0.198,0.228-0.198h0.558l12.782,15.927h0.517V1.688
		c0-0.109,0.087-0.228,0.228-0.228h0.992c0.11,0,0.226,0.117,0.226,0.228V20.76c0,0.102-0.109,0.199-0.226,0.199H176.554z"/>
	<path id="XMLID_1_" fill="#FFFFFF" d="M188.607,20.676c-0.14,0-0.226-0.117-0.226-0.226V1.689c0-0.109,0.087-0.228,0.226-0.228
		h11.167c0.14,0,0.227,0.118,0.227,0.228V2.51c0,0.109-0.087,0.227-0.227,0.227h-9.834v7.538h8.445c0.112,0,0.227,0.114,0.227,0.227
		v0.821c0,0.141-0.117,0.228-0.227,0.228h-8.445v7.85h9.834c0.14,0,0.227,0.117,0.227,0.226v0.823c0,0.109-0.087,0.226-0.227,0.226
		H188.607z"/>
</g>
</svg>
